<svg xmlns="http://www.w3.org/2000/svg" version="1.1" xmlns:xlink="http://www.w3.org/1999/xlink" width="512" height="512" x="0" y="0" viewBox="0 0 128 128" style="enable-background:new 0 0 512 512" xml:space="preserve" class=""><g><path d="M123.1 21.9H14.97a4.4 4.4 0 0 0-4.4 4.4v5.67H4.9a4.4 4.4 0 0 0-4.4 4.4v65.68a4.4 4.4 0 0 0 4.4 4.4h108.13a4.4 4.4 0 0 0 4.4-4.4v-5.67h5.67a4.4 4.4 0 0 0 4.4-4.4V26.3a4.4 4.4 0 0 0-4.4-4.4zm-9.67 80.15c0 .22-.18.4-.4.4H4.9c-.22 0-.4-.18-.4-.4V36.37c0-.22.18-.4.4-.4h108.13c.22 0 .4.18.4.4zm10.07-10.07c0 .22-.18.4-.4.4h-5.67V36.37a4.4 4.4 0 0 0-4.4-4.4H14.57V26.3c0-.22.18-.4.4-.4H123.1c.22 0 .4.18.4.4z" fill="#000000" opacity="1" data-original="#000000"></path><path d="M105.86 50.99c-4.11 0-7.45-3.34-7.45-7.45 0-1.1-.9-2-2-2h-74.9c-1.1 0-2 .9-2 2 0 4.11-3.34 7.45-7.45 7.45-1.1 0-2 .9-2 2v32.43c0 1.1.9 2 2 2 4.11 0 7.45 3.34 7.45 7.45 0 1.1.9 2 2 2h74.91c1.1 0 2-.9 2-2 0-4.11 3.34-7.45 7.45-7.45 1.1 0 2-.9 2-2V52.99c-.01-1.1-.9-2-2.01-2zm-2 32.61a11.47 11.47 0 0 0-9.27 9.27H23.34a11.47 11.47 0 0 0-9.27-9.27V54.82a11.47 11.47 0 0 0 9.27-9.27h71.25a11.47 11.47 0 0 0 9.27 9.27z" fill="#000000" opacity="1" data-original="#000000"></path><path d="M58.97 51.96c-9.51 0-17.25 7.74-17.25 17.25s7.74 17.25 17.25 17.25 17.25-7.74 17.25-17.25c-.01-9.51-7.74-17.25-17.25-17.25zm0 30.5c-7.3 0-13.25-5.94-13.25-13.25s5.94-13.25 13.25-13.25 13.25 5.94 13.25 13.25-5.95 13.25-13.25 13.25zM27.63 61.54c-4.23 0-7.67 3.44-7.67 7.67s3.44 7.67 7.67 7.67 7.67-3.44 7.67-7.67-3.44-7.67-7.67-7.67zm0 11.34c-2.02 0-3.67-1.65-3.67-3.67s1.65-3.67 3.67-3.67 3.67 1.65 3.67 3.67-1.65 3.67-3.67 3.67zM90.3 61.54c-4.23 0-7.67 3.44-7.67 7.67s3.44 7.67 7.67 7.67 7.67-3.44 7.67-7.67-3.44-7.67-7.67-7.67zm0 11.34c-2.02 0-3.67-1.65-3.67-3.67s1.65-3.67 3.67-3.67 3.67 1.65 3.67 3.67-1.65 3.67-3.67 3.67z" fill="#000000" opacity="1" data-original="#000000"></path></g></svg>
