<svg xmlns="http://www.w3.org/2000/svg" version="1.1" xmlns:xlink="http://www.w3.org/1999/xlink" width="512" height="512" x="0" y="0" viewBox="0 0 512 512" style="enable-background:new 0 0 512 512" xml:space="preserve" class=""><g><path d="M460.8 153.6H358.4a38.24 38.24 0 0 0-12.8 2.196V38.4c0-21.174-17.226-38.4-38.4-38.4H204.8c-21.174 0-38.4 17.226-38.4 38.4v245.396a38.24 38.24 0 0 0-12.8-2.196H51.2c-21.174 0-38.4 17.226-38.4 38.4v179.2c0 7.069 5.731 12.8 12.8 12.8h460.8c7.069 0 12.8-5.731 12.8-12.8V192c0-21.174-17.226-38.4-38.4-38.4zM38.4 320c0-7.058 5.742-12.8 12.8-12.8h102.4c7.058 0 12.8 5.742 12.8 12.8v166.4h-128V320zM192 38.4c0-7.058 5.742-12.8 12.8-12.8h102.4c7.058 0 12.8 5.742 12.8 12.8v448H192zm281.6 448h-128V192c0-7.058 5.742-12.8 12.8-12.8h102.4c7.058 0 12.8 5.742 12.8 12.8z" fill="#000000" opacity="1" data-original="#000000" class=""></path></g></svg>
