<svg xmlns="http://www.w3.org/2000/svg" version="1.1" xmlns:xlink="http://www.w3.org/1999/xlink" width="512" height="512" x="0" y="0" viewBox="0 0 24 24" style="enable-background:new 0 0 512 512" xml:space="preserve"><g><path d="M9.5 8h-8C.673 8 0 7.327 0 6.5v-5C0 .673.673 0 1.5 0h8c.827 0 1.5.673 1.5 1.5v5c0 .827-.673 1.5-1.5 1.5zm-8-7a.5.5 0 0 0-.5.5v5a.5.5 0 0 0 .5.5h8a.5.5 0 0 0 .5-.5v-5a.5.5 0 0 0-.5-.5zM9.5 24h-8C.673 24 0 23.327 0 22.5v-11c0-.827.673-1.5 1.5-1.5h8c.827 0 1.5.673 1.5 1.5v11c0 .827-.673 1.5-1.5 1.5zm-8-13a.5.5 0 0 0-.5.5v11a.5.5 0 0 0 .5.5h8a.5.5 0 0 0 .5-.5v-11a.5.5 0 0 0-.5-.5zM22.5 24h-8c-.827 0-1.5-.673-1.5-1.5v-5c0-.827.673-1.5 1.5-1.5h8c.827 0 1.5.673 1.5 1.5v5c0 .827-.673 1.5-1.5 1.5zm-8-7a.5.5 0 0 0-.5.5v5a.5.5 0 0 0 .5.5h8a.5.5 0 0 0 .5-.5v-5a.5.5 0 0 0-.5-.5zM22.5 14h-8c-.827 0-1.5-.673-1.5-1.5v-11c0-.827.673-1.5 1.5-1.5h8c.827 0 1.5.673 1.5 1.5v11c0 .827-.673 1.5-1.5 1.5zm-8-13a.5.5 0 0 0-.5.5v11a.5.5 0 0 0 .5.5h8a.5.5 0 0 0 .5-.5v-11a.5.5 0 0 0-.5-.5z" fill="#000000" opacity="1" data-original="#000000"></path></g></svg>
