<svg xmlns="http://www.w3.org/2000/svg" version="1.1" xmlns:xlink="http://www.w3.org/1999/xlink" width="512" height="512" x="0" y="0" viewBox="0 0 32 32" style="enable-background:new 0 0 512 512" xml:space="preserve" class=""><g><path d="M7 31h18a3 3 0 0 0 3-3V10.829a3.21 3.21 0 0 0-.879-2.122l-6.828-6.828A3.212 3.212 0 0 0 18.172 1H7a3 3 0 0 0-3 3v24a3 3 0 0 0 3 3zM24.586 9H21a1 1 0 0 1-1-1V4.414zM6 4a1 1 0 0 1 1-1h11v5a3 3 0 0 0 3 3h5v17a1 1 0 0 1-1 1H7a1 1 0 0 1-1-1z" fill="#000000" opacity="1" data-original="#000000" class=""></path></g></svg>
