<svg xmlns="http://www.w3.org/2000/svg" width="24" height="24" viewBox="0 0 24 24" fill="none" stroke="currentColor" stroke-width="2" stroke-linecap="round" stroke-linejoin="round"><path stroke="none" d="M0 0h24v24H0z" fill="none"/><path d="M18.9 7a8 8 0 0 1 2.2 5a8 8 0 0 1 -2.2 5" /><path d="M15 5h-2a6 6 0 0 0 -6 6v2a6 6 0 0 0 6 6h2" /><path d="M5 15h-3a1 1 0 0 1 -1 -1v-4a1 1 0 0 1 1 -1h3" /><path d="M6 15l2 4" /><path d="M15 9c0 .667 .333 1 1 1h1c.667 0 1 -.333 1 -1s-.333 -1 -1 -1h-1c-.667 0 -1 .333 -1 1z" /></svg>
