<svg xmlns="http://www.w3.org/2000/svg" version="1.1" xmlns:xlink="http://www.w3.org/1999/xlink" width="512" height="512" x="0" y="0" viewBox="0 0 512 512" style="enable-background:new 0 0 512 512" xml:space="preserve" class=""><g><path d="M336.333 416.667v-32.134M336.333 320.267v-32.134M336.333 223.867v-32.134M336.333 127.467V95.333M497 191.733c-35.467 0-64.267 28.799-64.267 64.267s28.8 64.267 64.267 64.267v37.435c0 38.214-20.75 58.965-58.965 58.965H73.965C35.75 416.667 15 395.917 15 357.702v-37.435c35.467 0 64.267-28.799 64.267-64.267S50.467 191.733 15 191.733v-37.435c0-38.214 20.75-58.965 58.965-58.965h364.07c38.215 0 58.965 20.75 58.965 58.965v37.435z" style="stroke-width:30;stroke-linecap:round;stroke-linejoin:round;stroke-miterlimit:10;" fill="none" stroke="#000000" stroke-width="30" stroke-linecap="round" stroke-linejoin="round" stroke-miterlimit="10" data-original="#000000" class=""></path></g></svg>
