<svg xmlns="http://www.w3.org/2000/svg" version="1.1" xmlns:xlink="http://www.w3.org/1999/xlink" width="512" height="512" x="0" y="0" viewBox="0 0 512 512" style="enable-background:new 0 0 512 512" xml:space="preserve" class=""><g><path d="M116.69 355.36H45.824c-6.627 0-12 5.373-12 12V492c0 6.627 5.373 12 12 12h70.866c6.627 0 12-5.373 12-12V367.36c0-6.627-5.373-12-12-12zm-12 124.64H57.824V379.36h46.866zm128.505-181.702h-70.867c-6.627 0-12 5.373-12 12V492c0 6.627 5.373 12 12 12h70.867c6.627 0 12-5.373 12-12V310.298c0-6.627-5.373-12-12-12zm-12 181.702h-46.867V322.298h46.867zM349.7 235.964h-70.896c-6.627 0-12 5.373-12 12V492c0 6.627 5.373 12 12 12H349.7c6.627 0 12-5.373 12-12V247.964c0-6.627-5.373-12-12-12zM337.7 480h-46.896V259.964H337.7zm128.477-316.122H395.31c-6.627 0-12 5.373-12 12V492c0 6.627 5.373 12 12 12h70.867c6.627 0 12-5.373 12-12V175.878c0-6.627-5.373-12-12-12zm-12 316.122H407.31V187.878h46.867zm24-460v43.938c0 6.627-5.373 12-12 12s-12-5.373-12-12V48.971l-86.24 86.24c-4.497 4.499-11.727 4.706-16.474.469l-36.754-32.79-108.461 108.487c-4.497 4.5-11.728 4.706-16.475.47l-36.755-32.791-98.709 98.71c-2.343 2.343-5.414 3.515-8.485 3.515s-6.142-1.172-8.485-3.515c-4.687-4.686-4.687-12.284 0-16.97l106.725-106.725c4.499-4.498 11.729-4.705 16.474-.469l36.754 32.79L305.753 77.905c4.499-4.5 11.729-4.706 16.475-.47l36.755 32.791 78.225-78.224H422.27c-6.627 0-12-5.372-12-12s5.373-12 12-12h43.909c6.627 0 12 5.373 12 12z" fill="#000000" opacity="1" data-original="#000000" class=""></path></g></svg>
